<?xml version="1.0" encoding="UTF-8"?>
<!DOCTYPE svg PUBLIC "-//W3C//DTD SVG 1.1//EN" "http://www.w3.org/Graphics/SVG/1.1/DTD/svg11.dtd">
<!-- Creator: CorelDRAW 2020 (64 Bit) -->
<svg xmlns="http://www.w3.org/2000/svg" xml:space="preserve" width="2262px" height="1597px" version="1.1" style="shape-rendering:geometricPrecision; text-rendering:geometricPrecision; image-rendering:optimizeQuality; fill-rule:evenodd; clip-rule:evenodd"
viewBox="0 0 2276.1 1606.84"
 xmlns:xlink="http://www.w3.org/1999/xlink"
 xmlns:xodm="http://www.corel.com/coreldraw/odm/2003">
 <defs>
  <style type="text/css">
   <![CDATA[
    .str0 {stroke:white;stroke-width:4.19;stroke-miterlimit:22.9256}
    .fil1 {fill:none;fill-rule:nonzero}
    .fil0 {fill:#FFBA00}
   ]]>
  </style>
   <clipPath id="id0">
    <path d="M0 1599.44l2276.1 0 0 -1516.46 -2276.1 0 0 1516.46z"/>
   </clipPath>
 </defs>
 <g id="Camada_x0020_1">
  <metadata id="CorelCorpID_0Corel-Layer"/>
  <polygon class="fil0" points="1.78,0 2274.32,0 2274.32,1606.84 1.78,1606.84 "/>
  <g style="clip-path:url(#id0)">
   <image x="0" y="82.56" width="2276.74" height="1516.88" xlink:href="backgroud_Images\backgroud_ImgID1.png"/>
  </g>
  <path class="fil1 str0" d="M1440.24 1116.66c6.6,-24.65 11.47,-48.87 14.58,-72.51 3.06,-23.26 4.61,-47.96 4.61,-73.93 0,-156.16 -63.3,-297.55 -165.63,-399.88 -102.33,-102.33 -243.71,-165.62 -399.88,-165.62l0 -146.71c196.67,0 374.72,79.72 503.6,208.61 128.89,128.89 208.61,306.94 208.61,503.6 0,29.86 -2.12,60.88 -6.33,92.84 -4.16,31.6 -10.18,62.14 -18.02,91.42l-141.54 -37.82z"/>
  <path class="fil1 str0" d="M1702.97 811.03c-18.54,24.4 -38.97,47.87 -61.15,70.26 -22.4,22.62 -45.7,43.32 -69.74,61.94 -155.4,120.43 -344.82,166.48 -525.43,143.57 -180.82,-22.93 -352.95,-114.91 -473.52,-270.5l57.94 -44.67 54.19 -49.46 3.8 4.77c95.54,123.29 232.12,196.2 375.69,214.41 143.78,18.23 294.46,-18.34 417.95,-114.04 20.09,-15.57 38.59,-31.88 55.39,-48.84 17.02,-17.19 33.21,-35.87 48.45,-55.92l116.43 88.48z"/>
  <path class="fil1 str0" d="M694.32 1154.48c-7.85,-29.28 -13.87,-59.82 -18.03,-91.42 -4.2,-31.96 -6.32,-62.98 -6.32,-92.84 0,-196.66 79.72,-374.71 208.6,-503.6 128.89,-128.89 306.94,-208.61 503.6,-208.61l0 146.71c-156.16,0 -297.54,63.29 -399.87,165.62 -102.34,102.33 -165.63,243.72 -165.63,399.88 0,25.97 1.54,50.67 4.6,73.93 3.12,23.64 7.99,47.86 14.59,72.51l-141.54 37.82z"/>
  <path class="fil1 str0" d="M671.71 920.25c4.16,-60.01 15.75,-117.98 33.87,-172.99 36.33,42.7 77.8,78.73 122.81,107.88 -7.68,37.16 -11.72,75.65 -11.72,115.08 0,16.38 0.61,32.26 1.84,47.59 -52.12,-25.93 -101.5,-58.51 -146.8,-97.56z"/>
  <path class="fil1 str0" d="M1457.75 1015.73c1.12,-14.69 1.68,-29.87 1.68,-45.51 0,-40.29 -4.23,-79.59 -12.23,-117.49 12.05,-7.95 23.89,-16.42 35.5,-25.42 20.09,-15.57 38.59,-31.88 55.39,-48.84 10.79,-10.9 21.25,-22.4 31.35,-34.47 18.38,54.92 30.26,112.81 34.71,172.77 -10.53,9.23 -21.22,18.06 -32.07,26.46 -36.42,28.23 -74.72,52.37 -114.33,72.5z"/>
  <path class="fil1 str0" d="M1138.05 459.98c-59.03,-28.29 -123.74,-46.64 -191.94,-52.88 57.59,-44.66 122.22,-80.69 191.94,-106.14 69.72,25.44 134.34,61.48 191.94,106.14 -68.21,6.24 -132.91,24.59 -191.94,52.88z"/>
 </g>
</svg>
