<?xml version="1.0" encoding="UTF-8"?>
<!DOCTYPE svg PUBLIC "-//W3C//DTD SVG 1.1//EN" "http://www.w3.org/Graphics/SVG/1.1/DTD/svg11.dtd">
<!-- Creator: CorelDRAW 2020 (64 Bit) -->
<svg xmlns="http://www.w3.org/2000/svg" xml:space="preserve" width="1080px" height="1920px" version="1.1" style="shape-rendering:geometricPrecision; text-rendering:geometricPrecision; image-rendering:optimizeQuality; fill-rule:evenodd; clip-rule:evenodd"
viewBox="0 0 1080 1920"
 xmlns:xlink="http://www.w3.org/1999/xlink"
 xmlns:xodm="http://www.corel.com/coreldraw/odm/2003">
 <defs>
  <style type="text/css">
   <![CDATA[
    .fil0 {fill:none}
    .fil3 {fill:#F89C32;fill-rule:nonzero}
    .fil2 {fill:#A3CD46;fill-rule:nonzero}
    .fil1 {fill:#00AFEF;fill-rule:nonzero}
   ]]>
  </style>
 </defs>
 <g id="Camada_x0020_1">
  <metadata id="CorelCorpID_0Corel-Layer"/>
  <rect class="fil0" width="1080" height="1920"/>
  <path class="fil1" d="M646.18 1650.2c-8.19,12.8 -17.35,25.21 -27.43,37.17 -10.17,12.07 -20.86,23.23 -32,33.39 -72.03,65.71 -163.82,96 -254.01,91.87 -90.29,-4.14 -179.03,-42.76 -244.81,-114.87l26.86 -24.38 24.82 -26.61 2.06 2.21c52.14,57.14 122.54,87.74 194.23,91.03 71.8,3.29 144.82,-20.78 202.05,-72.99 9.32,-8.5 17.81,-17.3 25.44,-26.35 7.73,-9.17 14.99,-19.05 21.72,-29.57l61.07 39.1z"/>
  <path class="fil2" d="M365.14 782.76c-6.77,1 -13.58,2.22 -20.43,3.64 -15.66,3.24 -30.53,7.31 -44.51,12.18 -92.1,32.08 -162.47,98.46 -201.8,179.83 -39.34,81.38 -47.62,177.77 -15.54,269.86l68.7 -23.93c-25.48,-73.13 -18.9,-149.66 12.33,-214.27 31.23,-64.62 87.11,-117.32 160.24,-142.79 12.16,-4.24 23.98,-7.54 35.37,-9.9 9.65,-2 19.69,-3.5 30.07,-4.48l-24.43 -70.14z"/>
  <path class="fil3" d="M739.72 359.75c6.74,1.19 13.52,2.59 20.32,4.2 15.56,3.67 30.32,8.15 44.16,13.4 91.18,34.6 159.7,102.89 196.78,185.32 37.08,82.43 42.71,179.01 8.11,270.18l-68.02 -25.81c27.48,-72.4 23.01,-149.08 -6.43,-214.53 -29.44,-65.45 -83.85,-119.67 -156.25,-147.14 -12.04,-4.57 -23.76,-8.2 -35.09,-10.88 -9.59,-2.26 -19.58,-4.03 -29.93,-5.3l26.35 -69.44z"/>
 </g>
</svg>
