<?xml version="1.0" encoding="utf-8"?>
<svg viewBox="0 0 400 317.1390013495277" xmlns="http://www.w3.org/2000/svg">
  <g id="svgg">
    <path id="path0" d="M 113.426 25.978 L 113.495 51.957 L 118.354 52.134 C 144.855 53.098 165.807 57.327 187.974 66.187 C 206.617 73.637 230.711 88.569 245.209 101.657 C 245.803 102.193 246.896 103.18 247.638 103.85 C 249.785 105.79 260.176 116.164 261.808 117.998 C 263.214 119.578 263.942 120.406 265.648 122.366 C 266.053 122.831 267.065 124.062 267.897 125.101 C 268.728 126.14 269.581 127.125 269.792 127.29 C 270.003 127.455 271.444 129.567 271.675 129.802 C 271.906 130.037 272.891 131.323 273.863 132.659 C 274.835 133.995 275.709 135.148 275.805 135.223 C 275.901 135.297 278.003 138.238 278.003 138.324 C 278.003 138.583 281.749 143.801 282.096 144.354 C 282.167 144.467 283.03 145.929 283.401 146.644 C 283.772 147.359 285.257 149.715 285.524 150.067 C 285.791 150.419 287.91 154.27 288.221 154.788 C 288.532 155.306 289.622 157.291 290.133 158.367 C 290.644 159.443 291.823 161.265 292.354 162.416 C 292.886 163.566 293.994 165.969 294.818 167.756 C 303.954 187.569 310 208.988 312.262 229.555 C 313.489 240.709 313.039 267.735 312.978 268.25 C 312.837 269.44 312.608 270.769 312.294 273.624 C 311.328 282.421 309.831 290.755 307.662 299.426 C 307.072 301.783 306.643 303.764 306.707 303.828 C 306.972 304.093 356.257 317.344 356.671 317.074 C 357.139 316.769 357.361 316.361 358.236 312.821 C 363.407 291.889 366.103 267.788 365.603 246.964 C 365.385 237.9 365.147 234.356 364.086 224.426 C 362.373 208.393 359.156 192.905 354.205 176.856 C 352.863 172.506 347.243 155.689 340.371 141.565 C 334.494 129.485 322.351 109.109 318.783 105.342 C 318.473 105.014 315.323 100.765 315.25 100.644 C 315.065 100.335 312.629 97.248 312.551 97.122 C 312.378 96.843 310.074 93.67 308.74 92.173 C 308.1 91.454 306.905 90.039 306.073 89.013 C 305.702 88.556 304.951 87.683 304.405 87.073 C 303.858 86.464 302.985 85.479 302.464 84.885 C 298.037 79.843 280.95 62.827 279.495 62.012 C 279.286 61.896 278.761 61.468 278.327 61.062 C 277.407 60.201 275.989 58.985 274.792 58.03 C 274.327 57.659 270.477 54.605 269.893 54.143 C 269.309 53.681 269.428 53.831 269.004 53.505 C 268.58 53.179 268.434 53.109 268.037 52.818 C 267.64 52.527 266.484 51.739 264.777 50.466 C 246.692 36.978 228.176 26.512 208.006 18.377 C 205.358 17.309 202.542 16.138 201.748 15.775 C 200.954 15.412 186.9 10.523 181.04 8.92 C 160.282 3.243 137.594 0 118.633 0 L 113.358 0 L 113.426 25.978" stroke="none" fill="#fcbc04" fill-rule="evenodd"/>
    <path id="path4" d="" stroke="none" fill="#e4bc14" fill-rule="evenodd"/>
  </g>
</svg>