<?xml version="1.0" encoding="utf-8"?>
<svg viewBox="0 0 400 317.1390013495277" xmlns="http://www.w3.org/2000/svg">
  <g id="svgg">
    <path id="path0" d="M 29.64 173.068 C 21.069 180.865 18.462 183.049 9.896 189.609 C 4.468 193.765 0.021 197.309 0.014 197.484 C -0.019 198.244 9.034 208.933 16.247 216.65 C 22.492 223.331 34.043 233.517 34.655 234.008 C 37.462 236.26 39.619 238.147 44.013 241.607 C 108.061 292.041 192.461 308.104 271.39 284.883 C 278.976 282.652 288.66 279.213 296.126 276.099 C 303.184 273.156 312.249 268.878 313.225 268.029 C 313.522 267.771 315.405 266.705 317.409 265.659 C 332.241 257.923 349.333 246.306 362.281 235.164 C 363.728 233.918 375.899 223.307 381.692 217.188 C 389.552 208.885 399.73 196.767 399.73 195.712 C 399.73 195.237 359.418 164.31 358.634 164.184 C 358.297 164.129 353.009 171.038 352.467 171.846 C 351.344 173.52 339.033 186.845 332.928 192.205 C 324.992 199.173 310.444 210.256 309.236 210.256 C 309.095 210.256 307.535 211.172 305.768 212.292 C 241.445 253.043 157.969 253.291 93.697 212.922 C 92.308 212.05 91.051 211.381 90.922 211.336 C 90.471 211.178 84.496 207.242 80.162 204.04 C 78.009 202.45 75.811 201.041 75.349 200.691 C 74.887 200.341 73.518 199.355 72.38 198.282 C 71.242 197.21 68.61 194.822 66.532 192.977 C 61.817 188.792 54.259 181.256 50.204 176.698 C 47.627 173.802 40.772 164.361 39.864 164.161 C 39.672 164.119 35.071 168.127 29.64 173.068" stroke="none" fill="#04acec" fill-rule="evenodd"/>
  </g>
</svg>