<?xml version="1.0" encoding="utf-8"?>
<svg viewBox="0 0 400 317.1390013495277" xmlns="http://www.w3.org/2000/svg">
  <g id="svgg">
    <path id="path0" d="M 273.144 0.177 C 272.476 0.223 269.987 0.389 267.611 0.547 C 254.041 1.446 238.491 3.93 224.492 7.434 C 216.705 9.384 201.26 14.169 200.322 14.922 C 200.129 15.078 198.307 15.833 196.274 16.599 C 176.238 24.154 154.844 35.857 137.293 48.861 C 134.795 50.712 132.4 52.368 132.03 52.632 C 126.532 56.549 108.069 72.889 98.102 84.076 C 91.506 91.478 78.15 109.751 78 109.93 C 77.497 110.531 69.46 123.185 67.935 125.776 C 60.109 139.075 48.578 164.844 46.981 172.605 C 46.859 173.198 46.128 175.749 45.357 178.273 C 32.114 221.624 30.78 267.683 41.488 311.929 C 42.621 316.61 42.805 317.138 43.304 317.132 C 45.163 317.107 92.987 303.957 93.063 303.449 C 93.108 303.155 92.72 301.226 92.202 299.163 C 90.212 291.24 88.664 282.726 87.708 274.439 C 87.412 271.871 87.027 268.556 86.852 267.072 C 86.319 262.54 86.413 241.695 86.996 235.358 C 87.801 226.597 89.58 214.514 90.551 211.201 C 90.769 210.459 91.553 207.362 92.295 204.318 C 105.94 148.287 144.372 99.854 195.816 73.859 C 198.043 72.733 200.011 71.635 200.242 71.486 C 201.819 70.468 214.18 65.177 222.117 62.495 C 241.71 55.875 258.642 52.905 280.904 52.184 L 286.37 52.007 L 286.37 26.003 L 286.37 0 L 280.364 0.047 C 277.061 0.073 273.812 0.132 273.144 0.177" stroke="none" fill="#a3cc44" fill-rule="evenodd"/>
  </g>
</svg>